<svg version="1.1" id="Capa_1" xmlns="http://www.w3.org/2000/svg" xmlns:xlink="http://www.w3.org/1999/xlink" x="0px" y="0px"
	 width="1000px" height="1000px" viewBox="0 0 1000 1000" style="enable-background:new 0 0 1000 1000;" xml:space="preserve">
<style type="text/css">
<![CDATA[
	.st0{fill:#222220;}
]]>
</style>
<g>
	<path class="st0" d="M890.909,154.545V9.091H0v854.546h127.273v127.272H1000V154.545H890.909z M36.364,827.272V45.455h818.181
		v109.091H127.273v672.727H36.364z M963.637,954.546h-800v-90.909V190.909h727.273h72.728V954.546z"/>
	<path class="st0" d="M763.637,554.546H581.818V372.728c0-10.055-8.127-18.182-18.182-18.182s-18.183,8.127-18.183,18.182v181.818
		H363.637c-10.055,0-18.183,8.127-18.183,18.182s8.128,18.182,18.183,18.182h181.817v181.818c0,10.055,8.128,18.182,18.183,18.182
		s18.182-8.127,18.182-18.182V590.909h181.818c10.055,0,18.182-8.127,18.182-18.182S773.691,554.546,763.637,554.546z"/>
</g>
</svg>
