<?xml version="1.0" encoding="utf-8"?>
<!-- Generator: Adobe Illustrator 16.2.0, SVG Export Plug-In . SVG Version: 6.00 Build 0)  -->
<!DOCTYPE svg PUBLIC "-//W3C//DTD SVG 1.1//EN" "http://www.w3.org/Graphics/SVG/1.1/DTD/svg11.dtd">
<svg version="1.1" id="Capa_1" xmlns="http://www.w3.org/2000/svg" xmlns:xlink="http://www.w3.org/1999/xlink" x="0px" y="0px"
	 width="1000px" height="1000px" viewBox="0 0 1000 1000" enable-background="new 0 0 1000 1000" xml:space="preserve">
<g>
	<path fill="#222220" d="M979.65,0H20.35C9.113,0,0,9.113,0,20.35v959.3C0,990.887,9.113,1000,20.35,1000h815.423
		c11.235,0,20.35-9.113,20.35-20.35c0-11.237-9.113-20.352-20.35-20.352H40.7V40.7h918.601v938.95
		c0,11.235,9.113,20.35,20.351,20.35c11.236,0,20.35-9.113,20.35-20.35V20.35C1000,9.113,990.887,0,979.65,0z"/>
	<path fill="#222220" d="M223.221,211.71c-43.016,0-78.008,34.992-78.008,78.008c0,43.017,34.992,78.008,78.008,78.008
		c43.016,0,78.008-34.991,78.008-78.008C301.229,246.702,266.237,211.71,223.221,211.71z M223.221,327.026
		c-20.57,0-37.308-16.738-37.308-37.308c0-20.57,16.738-37.308,37.308-37.308c20.57,0,37.308,16.738,37.308,37.308
		C260.529,310.288,243.795,327.026,223.221,327.026z"/>
	<path fill="#222220" d="M837.109,269.368h-474.83c-11.237,0-20.352,9.113-20.352,20.35c0,11.237,9.113,20.35,20.352,20.35h474.83
		c11.235,0,20.35-9.113,20.35-20.35C857.459,278.481,848.35,269.368,837.109,269.368z"/>
	<path fill="#222220" d="M223.221,421.992c-11.236,0-20.35,9.113-20.35,20.35c0,11.237,9.113,20.351,20.35,20.351
		c20.57,0,37.308,16.737,37.308,37.309s-16.738,37.308-37.308,37.308c-20.57,0-37.308-16.738-37.308-37.309
		c0-11.236-9.113-20.35-20.35-20.35s-20.35,9.112-20.35,20.35c0,43.017,34.992,78.008,78.008,78.008
		c43.016,0,78.008-34.991,78.008-78.008S266.237,421.992,223.221,421.992z"/>
	<path fill="#222220" d="M837.109,479.65h-474.83c-11.237,0-20.352,9.112-20.352,20.35s9.113,20.35,20.352,20.35h474.83
		c11.235,0,20.35-9.112,20.35-20.35S848.35,479.65,837.109,479.65z"/>
	<path fill="#222220" d="M223.221,632.274c-43.016,0-78.008,34.99-78.008,78.008c0,43.017,34.992,78.008,78.008,78.008
		c43.016,0,78.008-34.991,78.008-78.008C301.229,667.265,266.237,632.274,223.221,632.274z M223.221,747.59
		c-20.57,0-37.308-16.736-37.308-37.308s16.738-37.31,37.308-37.31c20.57,0,37.308,16.738,37.308,37.31
		S243.795,747.59,223.221,747.59z"/>
	<path fill="#222220" d="M837.109,689.933h-474.83c-11.237,0-20.352,9.113-20.352,20.351c0,11.236,9.113,20.35,20.352,20.35h474.83
		c11.235,0,20.35-9.113,20.35-20.35C857.459,699.046,848.35,689.933,837.109,689.933z"/>
</g>
</svg>
