<svg version="1.1" id="Layer_1" xmlns="http://www.w3.org/2000/svg" xmlns:xlink="http://www.w3.org/1999/xlink" x="0px" y="0px"
	 width="473.019px" height="473.02px" viewBox="0 0 473.019 473.02" style="enable-background:new 0 0 473.019 473.02;"
	 xml:space="preserve">
<style type="text/css">
<![CDATA[
	.st0{fill:none;stroke:#BEBEBE;stroke-width:12;stroke-miterlimit:10;}
	.st1{fill:#BEBEBE;}
]]>
</style>
<g>
	<circle class="st0" cx="236.51" cy="236.51" r="230.51"/>
	<g id="Pensil">
		<path class="st1" d="M301.971,170.476l-65.965-32.359c-1.071-0.528-2.311-0.606-3.437-0.217c-1.13,0.387-2.058,1.205-2.584,2.274
			l-73.024,148.868c-0.345,0.706-0.502,1.491-0.451,2.275l4.812,73.604c0.106,1.607,1.063,3.036,2.51,3.747
			c0.353,0.174,0.72,0.297,1.098,0.372c1.164,0.233,2.391-0.001,3.399-0.682l61.15-41.244c0.652-0.439,1.176-1.042,1.523-1.749
			l73.027-148.867C305.125,174.267,304.199,171.571,301.971,170.476z M169.793,356.516l-1.478-22.595l20.179,9.98L169.793,356.516z
			 M223.452,320.322l-26.37,17.786l-29.445-14.563l-2.067-31.614l70.513-143.751l57.882,28.392L223.452,320.322z"/>
		<path class="st1" d="M324.267,126.697l-66.57-32.654c-1.071-0.533-2.309-0.611-3.437-0.218c-1.131,0.387-2.06,1.206-2.585,2.275
			l-13.519,27.567c-1.096,2.233-0.175,4.932,2.058,6.024l66.567,32.654c0.353,0.173,0.722,0.297,1.1,0.373
			c0.772,0.155,1.58,0.105,2.34-0.155c1.132-0.387,2.061-1.205,2.585-2.279l13.518-27.568
			C327.416,130.488,326.496,127.789,324.267,126.697z M306.706,152.281l-58.488-28.687l9.558-19.487l58.489,28.687L306.706,152.281z
			"/>
		<path class="st1" d="M214.019,287.508c0.357,0.175,0.727,0.299,1.1,0.373c1.955,0.392,4.002-0.557,4.922-2.431l48.011-97.875
			c1.098-2.231,0.172-4.928-2.056-6.023c-2.222-1.081-4.931-0.177-6.023,2.057l-48.011,97.875
			C210.866,283.717,211.786,286.415,214.019,287.508z"/>
	</g>
</g>
</svg>
