<svg version="1.1" id="Capa_1" xmlns="http://www.w3.org/2000/svg" xmlns:xlink="http://www.w3.org/1999/xlink" x="0px" y="0px"
	 width="1000px" height="1000px" viewBox="0 0 1000 1000" style="enable-background:new 0 0 1000 1000;" xml:space="preserve">
<style type="text/css">
<![CDATA[
	.st0{fill:none;stroke:#222220;stroke-width:33;stroke-linecap:round;stroke-miterlimit:10;}
	.st1{fill:#222220;}
]]>
</style>
<g>
	<path class="st1" d="M98.61,569.811c63.045,63.045,146.867,97.765,236.025,97.765c80.698,0,157.021-28.447,217.527-80.59
		l96.762,96.767l-57.661,57.661c-4.729,4.729-7.385,11.145-7.385,17.834c0,6.688,2.656,13.104,7.385,17.833L775.9,961.717
		c25.524,25.521,59.054,38.284,92.575,38.284s67.052-12.763,92.575-38.284l1.499-1.5c51.058-51.057,51.058-134.114,0.011-185.161
		L858.199,670.692c-9.854-9.854-25.821-9.848-35.672,0c-9.851,9.847-9.851,25.816,0,35.667L926.89,810.722
		c31.38,31.38,31.38,82.434,0,113.813l-1.5,1.5c-31.383,31.39-82.442,31.383-113.819,0.01L644.765,759.242l57.646-57.642
		c0.006-0.007,0.013-0.011,0.02-0.018s0.011-0.014,0.019-0.021l75.478-75.476c9.852-9.847,9.852-25.817,0-35.667
		c-9.851-9.851-25.817-9.851-35.671,0l-57.661,57.658l-96.847-96.847c112.68-130.991,107.043-329.333-17.091-453.469
		C507.609,34.719,423.785,0,334.63,0C245.474,0,161.652,34.719,98.607,97.765C-31.536,227.908-31.536,439.667,98.61,569.811z
		 M134.277,133.436c53.516-53.518,124.669-82.991,200.353-82.991c75.683,0,146.837,29.473,200.352,82.991
		c110.478,110.473,110.478,290.23,0,400.707c-53.515,53.516-124.669,82.987-200.352,82.987c-75.684,0-146.838-29.47-200.353-82.987
		C23.801,423.666,23.801,243.909,134.277,133.436z"/>
	<path class="st0" d="M135.929,337.565c0-120.416,97.617-218.033,218.033-218.033"/>
</g>
</svg>
